<?xml version="1.0" encoding="UTF-8" standalone="no"?>
<svg
   width="705.6"
   height="720"
   viewBox="0 0 186.69 190.5"
   version="1.1"
   id="svg485"
   sodipodi:docname="google.svg"
   inkscape:export-filename="google.png"
   inkscape:export-xdpi="95.238098"
   inkscape:export-ydpi="95.238098"
   inkscape:version="1.2.2 (1:1.2.2+202305151914+b0a8486541)"
   xmlns:inkscape="http://www.inkscape.org/namespaces/inkscape"
   xmlns:sodipodi="http://sodipodi.sourceforge.net/DTD/sodipodi-0.dtd"
   xmlns="http://www.w3.org/2000/svg"
   xmlns:svg="http://www.w3.org/2000/svg">
  <defs
     id="defs489" />
  <sodipodi:namedview
     id="namedview487"
     pagecolor="#ffffff"
     bordercolor="#999999"
     borderopacity="1"
     inkscape:showpageshadow="0"
     inkscape:pageopacity="0"
     inkscape:pagecheckerboard="0"
     inkscape:deskcolor="#d1d1d1"
     showgrid="false"
     inkscape:zoom="0.73055556"
     inkscape:cx="211.48289"
     inkscape:cy="272.39544"
     inkscape:window-width="1366"
     inkscape:window-height="692"
     inkscape:window-x="0"
     inkscape:window-y="0"
     inkscape:window-maximized="1"
     inkscape:current-layer="g483" />
  <g
     transform="translate(1184.583 765.171)"
     id="g483">
    <rect
       style="font-variation-settings:'opsz' 512, 'wdth' 100, 'wght' 900;opacity:1;fill:#ffffff;fill-opacity:1;stroke-width:15.8804;paint-order:markers fill stroke"
       id="rect710"
       width="186.69"
       height="190.50003"
       x="-1184.583"
       y="-765.17102"
       ry="0" />
    <g
       id="g1417"
       transform="matrix(0.55606229,0,0,0.55606229,-484.44198,-297.40347)">
      <path
         clip-path="none"
         mask="none"
         d="m -1089.333,-687.239 v 36.888 h 51.262 c -2.251,11.863 -9.006,21.908 -19.137,28.662 l 30.913,23.986 c 18.011,-16.625 28.402,-41.044 28.402,-70.052 0,-6.754 -0.606,-13.249 -1.732,-19.483 z"
         fill="#4285f4"
         id="path475" />
      <path
         clip-path="none"
         mask="none"
         d="m -1142.714,-651.791 -6.972,5.337 -24.679,19.223 v 0 c 15.673,31.086 47.796,52.561 85.03,52.561 25.717,0 47.278,-8.486 63.038,-23.033 l -30.913,-23.986 c -8.486,5.715 -19.31,9.179 -32.125,9.179 -24.765,0 -45.806,-16.712 -53.34,-39.226 z"
         fill="#34a853"
         id="path477" />
      <path
         clip-path="none"
         mask="none"
         d="m -1174.365,-712.61 c -6.494,12.815 -10.217,27.276 -10.217,42.689 0,15.413 3.723,29.874 10.217,42.689 0,0.086 31.693,-24.592 31.693,-24.592 -1.905,-5.715 -3.031,-11.776 -3.031,-18.098 0,-6.322 1.126,-12.383 3.031,-18.098 z"
         fill="#fbbc05"
         id="path479" />
      <path
         d="m -1089.333,-727.244 c 14.028,0 26.497,4.849 36.455,14.201 l 27.276,-27.276 c -16.539,-15.413 -38.013,-24.852 -63.731,-24.852 -37.234,0 -69.359,21.388 -85.032,52.561 l 31.692,24.592 c 7.533,-22.514 28.575,-39.226 53.34,-39.226 z"
         fill="#ea4335"
         clip-path="none"
         mask="none"
         id="path481" />
    </g>
  </g>
</svg>
